<svg xmlns="http://www.w3.org/2000/svg" viewBox="0 0 1600 900" width="1600" height="900"><defs><linearGradient id="bg" x2=".95" y2="1"><stop stop-color="#05131d"/><stop offset=".55" stop-color="#12272d"/><stop offset="1" stop-color="#301e19"/></linearGradient><linearGradient id="dust" x2="1" y2="1"><stop stop-color="#64cbd8" stop-opacity=".08"/><stop offset="1" stop-color="#f0ae63" stop-opacity=".28"/></linearGradient><radialGradient id="sun"><stop stop-color="#eda864" stop-opacity=".46"/><stop offset="1" stop-color="#df8a55" stop-opacity="0"/></radialGradient></defs><rect width="1600" height="900" fill="url(#bg)"/><ellipse cx="1270" cy="350" rx="450" ry="440" fill="url(#sun)"/><path d="M0 740l210-110 125 25 220-140 165 99 230-150 196 107 185-145 269 82v392H0z" fill="#07141c" opacity=".79"/><path d="M0 810l278-87 160 56 206-106 285 89 190-132 205 110 276-100v260H0z" fill="#071018"/><g stroke="#9dc5c9" stroke-opacity=".25" fill="none"><path d="M1040 775V320m0 0-85-35m85 35 72-85m-72 85 120 73m-120-73-134 99" stroke-width="10"/><path d="M700 730V510l90-77 123 45 62-127" stroke-width="6"/></g><path d="M950 400l125-63 120 96-9 202-218 30z" fill="#11222b" stroke="#b78b62" stroke-opacity=".23"/><path d="M1005 473h129v129h-129z" fill="#060e15"/><path d="M1315 590h225v120h-225z" fill="#0b161d" opacity=".8"/><g stroke="url(#dust)" stroke-width="1.3" fill="none"><circle cx="420" cy="65" r="3" fill="#e5a65f" opacity="0.15"/><circle cx="511" cy="214" r="1.5" fill="#76bbd2" opacity="0.22999999999999998"/><circle cx="602" cy="363" r="1.5" fill="#76bbd2" opacity="0.31"/><circle cx="693" cy="512" r="1.5" fill="#e5a65f" opacity="0.39"/><circle cx="784" cy="661" r="3" fill="#76bbd2" opacity="0.47"/><circle cx="875" cy="135" r="1.5" fill="#76bbd2" opacity="0.55"/><circle cx="966" cy="284" r="1.5" fill="#e5a65f" opacity="0.15"/><circle cx="1057" cy="433" r="1.5" fill="#76bbd2" opacity="0.22999999999999998"/><circle cx="1148" cy="582" r="3" fill="#76bbd2" opacity="0.31"/><circle cx="1239" cy="731" r="1.5" fill="#e5a65f" opacity="0.39"/><circle cx="1330" cy="205" r="1.5" fill="#76bbd2" opacity="0.47"/><circle cx="1421" cy="354" r="1.5" fill="#76bbd2" opacity="0.55"/><circle cx="1512" cy="503" r="3" fill="#e5a65f" opacity="0.15"/><circle cx="423" cy="652" r="1.5" fill="#76bbd2" opacity="0.22999999999999998"/><circle cx="514" cy="126" r="1.5" fill="#76bbd2" opacity="0.31"/><circle cx="605" cy="275" r="1.5" fill="#e5a65f" opacity="0.39"/><circle cx="696" cy="424" r="3" fill="#76bbd2" opacity="0.47"/><circle cx="787" cy="573" r="1.5" fill="#76bbd2" opacity="0.55"/><circle cx="878" cy="722" r="1.5" fill="#e5a65f" opacity="0.15"/><circle cx="969" cy="196" r="1.5" fill="#76bbd2" opacity="0.22999999999999998"/><circle cx="1060" cy="345" r="3" fill="#76bbd2" opacity="0.31"/><circle cx="1151" cy="494" r="1.5" fill="#e5a65f" opacity="0.39"/><circle cx="1242" cy="643" r="1.5" fill="#76bbd2" opacity="0.47"/><circle cx="1333" cy="117" r="1.5" fill="#76bbd2" opacity="0.55"/><circle cx="1424" cy="266" r="3" fill="#e5a65f" opacity="0.15"/><circle cx="1515" cy="415" r="1.5" fill="#76bbd2" opacity="0.22999999999999998"/><circle cx="426" cy="564" r="1.5" fill="#76bbd2" opacity="0.31"/><circle cx="517" cy="713" r="1.5" fill="#e5a65f" opacity="0.39"/><circle cx="608" cy="187" r="3" fill="#76bbd2" opacity="0.47"/><circle cx="699" cy="336" r="1.5" fill="#76bbd2" opacity="0.55"/><circle cx="790" cy="485" r="1.5" fill="#e5a65f" opacity="0.15"/><circle cx="881" cy="634" r="1.5" fill="#76bbd2" opacity="0.22999999999999998"/><circle cx="972" cy="108" r="3" fill="#76bbd2" opacity="0.31"/><circle cx="1063" cy="257" r="1.5" fill="#e5a65f" opacity="0.39"/><circle cx="1154" cy="406" r="1.5" fill="#76bbd2" opacity="0.47"/><circle cx="1245" cy="555" r="1.5" fill="#76bbd2" opacity="0.55"/><circle cx="1336" cy="704" r="3" fill="#e5a65f" opacity="0.15"/><circle cx="1427" cy="178" r="1.5" fill="#76bbd2" opacity="0.22999999999999998"/><circle cx="1518" cy="327" r="1.5" fill="#76bbd2" opacity="0.31"/><circle cx="429" cy="476" r="1.5" fill="#e5a65f" opacity="0.39"/><circle cx="520" cy="625" r="3" fill="#76bbd2" opacity="0.47"/><circle cx="611" cy="99" r="1.5" fill="#76bbd2" opacity="0.55"/><circle cx="702" cy="248" r="1.5" fill="#e5a65f" opacity="0.15"/><circle cx="793" cy="397" r="1.5" fill="#76bbd2" opacity="0.22999999999999998"/><circle cx="884" cy="546" r="3" fill="#76bbd2" opacity="0.31"/><circle cx="975" cy="695" r="1.5" fill="#e5a65f" opacity="0.39"/><circle cx="1066" cy="169" r="1.5" fill="#76bbd2" opacity="0.47"/><circle cx="1157" cy="318" r="1.5" fill="#76bbd2" opacity="0.55"/><circle cx="1248" cy="467" r="3" fill="#e5a65f" opacity="0.15"/><circle cx="1339" cy="616" r="1.5" fill="#76bbd2" opacity="0.22999999999999998"/><circle cx="1430" cy="90" r="1.5" fill="#76bbd2" opacity="0.31"/><circle cx="1521" cy="239" r="1.5" fill="#e5a65f" opacity="0.39"/><circle cx="432" cy="388" r="3" fill="#76bbd2" opacity="0.47"/><circle cx="523" cy="537" r="1.5" fill="#76bbd2" opacity="0.55"/><circle cx="614" cy="686" r="1.5" fill="#e5a65f" opacity="0.15"/><circle cx="705" cy="160" r="1.5" fill="#76bbd2" opacity="0.22999999999999998"/><circle cx="796" cy="309" r="3" fill="#76bbd2" opacity="0.31"/><circle cx="887" cy="458" r="1.5" fill="#e5a65f" opacity="0.39"/><circle cx="978" cy="607" r="1.5" fill="#76bbd2" opacity="0.47"/><circle cx="1069" cy="81" r="1.5" fill="#76bbd2" opacity="0.55"/><circle cx="1160" cy="230" r="3" fill="#e5a65f" opacity="0.15"/><circle cx="1251" cy="379" r="1.5" fill="#76bbd2" opacity="0.22999999999999998"/><circle cx="1342" cy="528" r="1.5" fill="#76bbd2" opacity="0.31"/><circle cx="1433" cy="677" r="1.5" fill="#e5a65f" opacity="0.39"/><circle cx="1524" cy="151" r="3" fill="#76bbd2" opacity="0.47"/><circle cx="435" cy="300" r="1.5" fill="#76bbd2" opacity="0.55"/><circle cx="526" cy="449" r="1.5" fill="#e5a65f" opacity="0.15"/><circle cx="617" cy="598" r="1.5" fill="#76bbd2" opacity="0.22999999999999998"/><circle cx="708" cy="72" r="3" fill="#76bbd2" opacity="0.31"/><circle cx="799" cy="221" r="1.5" fill="#e5a65f" opacity="0.39"/><circle cx="890" cy="370" r="1.5" fill="#76bbd2" opacity="0.47"/><circle cx="981" cy="519" r="1.5" fill="#76bbd2" opacity="0.55"/><circle cx="1072" cy="668" r="3" fill="#e5a65f" opacity="0.15"/><circle cx="1163" cy="142" r="1.5" fill="#76bbd2" opacity="0.22999999999999998"/><circle cx="1254" cy="291" r="1.5" fill="#76bbd2" opacity="0.31"/><circle cx="1345" cy="440" r="1.5" fill="#e5a65f" opacity="0.39"/></g><path d="M560 825Q850 720 1550 765" fill="none" stroke="#d99a5a" stroke-opacity=".12" stroke-width="21"/><path d="M440 0v900" stroke="#5bb7c0" stroke-opacity=".03" stroke-width="1"/><rect width="1600" height="900" fill="url(#dust)" opacity=".17"/></svg>